<?xml version="1.0" encoding="utf-8"?>
<!-- Generator: Adobe Illustrator 24.3.0, SVG Export Plug-In . SVG Version: 6.00 Build 0)  -->
<svg version="1.1" xmlns="http://www.w3.org/2000/svg" xmlns:xlink="http://www.w3.org/1999/xlink" x="0px" y="0px"
	 viewBox="0 0 1920 1080" style="enable-background:new 0 0 1920 1080;" xml:space="preserve">
<style type="text/css">
	.st0{display:none;}
</style>
<g id="Layer_1" class="st0">
</g>
<g id="Layer_2">
	<path d="M1018.92,584.66c-13.73,11.92-27.12,24.15-41.14,35.62c-50.34,41.17-105.86,72.87-168.19,92.46
		c-56.85,17.87-110.78,9.73-163.1-16.09c-26.8-13.22-49.88-31.53-68-55.09c-54.03-70.26-33.45-151.7,27.26-196.59
		c56.04-41.44,118.32-48.36,184.4-28.88c48.3,14.24,91.83,37.92,131.96,67.72c25.71,19.09,49.99,40.1,74.9,60.25
		c1.84,1.49,3.66,3.01,6.14,5.06c10.03-8.78,19.92-17.29,29.66-25.98c43.74-39.02,91.19-72.34,145.39-95.48
		c50.78-21.68,103.04-28.27,156.65-13.57c46.08,12.64,85.01,37.5,114.57,75.4c46.56,59.71,38.43,138.2-20.05,186.4
		c-54.94,45.28-118.01,56.15-186.19,38.49c-64.66-16.76-121.53-49.22-174.21-89.45C1052.02,611.99,1035.72,598.22,1018.92,584.66z
		 M1028.95,575.36c16.61,14.06,32.22,27.8,48.38,40.84c45.51,36.7,95.82,64.26,153.16,77.41c65.09,14.93,124.05,1.76,173.87-43.22
		c36.3-32.77,49.86-75.12,39.76-122.97c-9.93-47.01-41.94-74.85-86.27-89.64c-41.09-13.71-81.97-11.33-122.77,1.97
		C1154.71,465.92,1090.13,515.95,1028.95,575.36z M995.2,559.54c-12.51-11.08-22.91-20.22-33.24-29.45
		c-39.95-35.72-84.36-64.59-133.72-85.39c-30.9-13.02-63.04-19.4-97-15.07c-49.63,6.32-92.39,25.09-124.51,64.83
		c-45.15,55.87-34.78,137.39,24.04,178.15c38.84,26.92,82.98,31.93,128.21,22.37c62.14-13.14,117.57-41.52,167.78-80.04
		C949.59,597.42,971.53,578.76,995.2,559.54z"/>
</g>
<g id="Layer_3">
	<path d="M994.73,569.92c-10.55-12.21-21.37-24.12-31.52-36.59c-36.42-44.77-64.42-94.1-81.66-149.46
		c-15.73-50.49-8.38-98.33,14.66-144.7c11.8-23.75,28.09-44.19,49.04-60.21c62.47-47.79,134.69-29.33,174.39,24.64
		c36.64,49.82,42.64,105.1,25.2,163.7c-12.75,42.82-33.86,81.4-60.4,116.95c-17,22.77-35.7,44.26-53.64,66.33
		c-1.33,1.63-2.68,3.24-4.5,5.44c7.77,8.92,15.3,17.72,22.98,26.38c34.53,38.91,63.98,81.09,84.39,129.24
		c19.12,45.11,24.85,91.5,11.68,139.04c-11.32,40.86-33.47,75.35-67.17,101.49c-53.09,41.18-122.73,33.79-165.36-18.22
		c-40.05-48.86-49.56-104.85-33.72-165.31c15.02-57.34,43.95-107.73,79.78-154.39C970.39,599.24,982.66,584.8,994.73,569.92z
		 M1002.96,578.84c-12.51,14.71-24.74,28.52-36.35,42.84c-32.67,40.3-57.24,84.88-69.05,135.73
		c-13.4,57.73-1.85,110.07,37.95,154.39c28.99,32.29,66.54,44.42,109.03,35.56c41.74-8.7,66.51-37.05,79.74-76.35
		c12.26-36.43,10.24-72.71-1.46-108.95C1099.78,690.7,1055.54,633.28,1002.96,578.84z M1017.07,548.94
		c9.86-11.07,17.99-20.29,26.21-29.43c31.79-35.37,57.51-74.71,76.09-118.47c11.63-27.39,17.36-55.9,13.6-86.04
		c-5.5-44.06-22.05-82.05-57.24-110.64c-49.47-40.2-121.84-31.18-158.14,20.92c-23.98,34.41-28.53,73.56-20.14,113.72
		c11.52,55.17,36.58,104.43,70.64,149.07C983.57,508.38,1000.08,527.89,1017.07,548.94z"/>
</g>
</svg>
